<?xml version="1.0" encoding="utf-8"?>
<!-- Generator: Adobe Illustrator 16.0.3, SVG Export Plug-In . SVG Version: 6.00 Build 0)  -->
<!DOCTYPE svg PUBLIC "-//W3C//DTD SVG 1.1//EN" "http://www.w3.org/Graphics/SVG/1.1/DTD/svg11.dtd">
<svg version="1.1" id="Calque_1" xmlns="http://www.w3.org/2000/svg" xmlns:xlink="http://www.w3.org/1999/xlink" x="0px" y="0px"
	 width="300px" height="70px" viewBox="0 0 300 70" enable-background="new 0 0 300 70" xml:space="preserve">
<g>
	<path fill="#333333" d="M111.496,16.133L97.102,47.108H93.39L78.954,16.133h8.167l8.125,17.611l8.167-17.611H111.496z"/>
	<path fill="#333333" d="M114.997,16.174h8.125v30.934h-8.125V16.174z"/>
	<path fill="#333333" d="M128.687,16.133h24.376v8.084h-8.208v22.891h-8.125V24.217h-8.043V16.133z"/>
	<path fill="#333333" d="M158.668,16.174h19.22v6.723h-11.095v5.032h9.816v6.847h-9.816v5.691h11.095v6.641h-19.22V16.174z"/>
	<path fill="#00A2C6" d="M183.701,16.174h8.125v22.768h11.136v8.166h-19.261V16.174z"/>
	<path fill="#00A2C6" d="M222.342,16.174c8.537,0,15.467,6.971,15.467,15.508s-6.93,15.425-15.467,15.425
		c-8.538,0-15.426-6.888-15.426-15.425S213.804,16.174,222.342,16.174z M222.342,24.258c-4.042,0-7.342,3.3-7.342,7.383
		c0,4.042,3.3,7.383,7.342,7.383c4.083,0,7.383-3.341,7.383-7.383C229.725,27.558,226.425,24.258,222.342,24.258z"/>
	<path fill="#00A2C6" d="M273.275,30.486v1.155c0,8.537-6.93,15.467-15.467,15.467c-8.538,0-15.426-6.93-15.426-15.467
		c0-8.538,6.888-15.467,15.426-15.467c4.248,0,8.084,1.732,10.889,4.496l-5.733,5.691c-1.319-1.237-3.052-2.062-5.155-2.062
		c-3.877,0-7.301,3.093-7.301,7.341s3.506,7.342,7.301,7.342c2.434,0,4.702-1.196,5.98-3.052h-5.98v-5.444H273.275z"/>
	<path fill="#00A2C6" d="M277.724,16.174h19.22v6.723h-11.095v5.032h9.816v6.847h-9.816v5.691h11.095v6.641h-19.22V16.174z"/>
</g>
<g>
	<path fill="#818282" d="M90.773,55.039v8.708h-1.225v-6.674l-2.784,3.449l-2.795-3.449v6.674h-1.226v-8.708h1.071l2.95,3.604
		l2.938-3.604H90.773z"/>
	<path fill="#818282" d="M100.492,56.205c0.888,0.864,1.332,1.927,1.332,3.188c0,1.253-0.444,2.313-1.332,3.177
		c-0.88,0.856-1.967,1.284-3.26,1.284c-1.309,0-2.399-0.424-3.271-1.272c-0.88-0.856-1.321-1.919-1.321-3.188
		c0-1.269,0.436-2.327,1.309-3.176c0.88-0.856,1.975-1.285,3.283-1.285C98.517,54.931,99.604,55.356,100.492,56.205z M99.576,61.712
		c0.65-0.65,0.976-1.424,0.976-2.32c0-0.896-0.326-1.669-0.976-2.319c-0.643-0.643-1.424-0.964-2.344-0.964
		c-0.928,0-1.713,0.321-2.355,0.964c-0.642,0.643-0.963,1.415-0.963,2.319c0,0.912,0.317,1.686,0.952,2.32
		c0.643,0.642,1.432,0.963,2.367,0.963C98.152,62.675,98.934,62.354,99.576,61.712z"/>
	<path fill="#818282" d="M108.962,55.039v1.118h-3.045v7.59h-1.225v-7.59h-3.045v-1.118H108.962z"/>
	<path fill="#818282" d="M115.172,62.627v1.119h-5.127v-8.708h5.043v1.118h-3.818v2.652h3.711v1.118h-3.711v2.7H115.172z"/>
	<path fill="#818282" d="M123.927,55.039v4.889c0,0.563-0.083,1.079-0.25,1.547s-0.42,0.888-0.761,1.261
		c-0.69,0.745-1.582,1.118-2.677,1.118c-1.086,0-1.975-0.36-2.665-1.082s-1.035-1.649-1.035-2.784v-4.948h1.226v4.901
		c0,0.443,0.057,0.83,0.172,1.159c0.115,0.329,0.284,0.613,0.506,0.851c0.444,0.484,1.046,0.726,1.808,0.726
		c0.753,0,1.348-0.25,1.784-0.749c0.214-0.246,0.378-0.537,0.494-0.875c0.115-0.337,0.172-0.728,0.172-1.171v-4.842H123.927z"/>
	<path fill="#818282" d="M130.552,60.951l1.82,2.796h-1.451l-1.511-2.355c-0.151-0.23-0.292-0.44-0.422-0.631
		s-0.264-0.36-0.398-0.512c-0.222-0.262-0.567-0.393-1.035-0.393h-0.94v3.891h-1.225v-8.708h2.343c0.452,0,0.86,0.048,1.225,0.143
		s0.686,0.246,0.964,0.452c0.277,0.214,0.485,0.476,0.625,0.785c0.139,0.31,0.208,0.654,0.208,1.035c0,0.603-0.183,1.09-0.547,1.463
		c-0.23,0.23-0.472,0.42-0.726,0.571c0.063,0.063,0.125,0.131,0.185,0.202s0.121,0.15,0.185,0.237
		c0.126,0.183,0.248,0.357,0.363,0.523C130.328,60.618,130.441,60.784,130.552,60.951z M129.042,58.393
		c0.143-0.111,0.251-0.242,0.327-0.393c0.075-0.15,0.113-0.337,0.113-0.56c0-0.396-0.143-0.705-0.428-0.928
		c-0.325-0.237-0.769-0.356-1.332-0.356h-1.106v2.581h1.047c0.317,0,0.589-0.029,0.815-0.089S128.891,58.504,129.042,58.393z"/>
	<path fill="#818282" d="M144.09,56.205c0.428,0.396,0.747,0.86,0.958,1.392c0.21,0.531,0.315,1.134,0.315,1.808
		c0,1.27-0.404,2.313-1.213,3.129c-0.412,0.412-0.9,0.718-1.463,0.916c-0.563,0.198-1.198,0.298-1.903,0.298h-3.271v-8.708h3.188
		c0.706,0,1.34,0.095,1.903,0.285S143.661,55.808,144.09,56.205z M143.15,61.748c0.626-0.587,0.94-1.368,0.94-2.344
		s-0.31-1.761-0.928-2.355s-1.459-0.892-2.522-0.892h-1.903v6.471h1.88C141.679,62.627,142.523,62.334,143.15,61.748z"/>
	<path fill="#818282" d="M152.013,62.627v1.119h-5.127v-8.708h5.043v1.118h-3.818v2.652h3.712v1.118h-3.712v2.7H152.013z"/>
	<path fill="#818282" d="M162.813,60.951l1.819,2.796h-1.451l-1.511-2.355c-0.15-0.23-0.291-0.44-0.422-0.631
		s-0.264-0.36-0.398-0.512c-0.223-0.262-0.567-0.393-1.035-0.393h-0.94v3.891h-1.225v-8.708h2.344c0.451,0,0.86,0.048,1.225,0.143
		c0.365,0.095,0.687,0.246,0.964,0.452c0.277,0.214,0.485,0.476,0.624,0.785s0.209,0.654,0.209,1.035
		c0,0.603-0.183,1.09-0.548,1.463c-0.229,0.23-0.472,0.42-0.726,0.571c0.063,0.063,0.125,0.131,0.185,0.202s0.121,0.15,0.185,0.237
		c0.127,0.183,0.248,0.357,0.362,0.523C162.588,60.618,162.702,60.784,162.813,60.951z M161.301,58.393
		c0.144-0.111,0.252-0.242,0.327-0.393c0.076-0.15,0.113-0.337,0.113-0.56c0-0.396-0.143-0.705-0.428-0.928
		c-0.325-0.237-0.77-0.356-1.333-0.356h-1.106v2.581h1.047c0.317,0,0.589-0.029,0.815-0.089
		C160.962,58.589,161.151,58.504,161.301,58.393z"/>
	<path fill="#818282" d="M170.938,62.627v1.119h-5.127v-8.708h5.044v1.118h-3.819v2.652h3.712v1.118h-3.712v2.7H170.938z"/>
	<path fill="#818282" d="M179.741,61.617v1.332c-0.27,0.159-0.527,0.29-0.773,0.393c-0.246,0.104-0.499,0.194-0.761,0.274
		c-0.278,0.087-0.544,0.148-0.798,0.184c-0.254,0.036-0.503,0.054-0.749,0.054c-1.364,0-2.49-0.416-3.379-1.249
		c-0.896-0.833-1.344-1.903-1.344-3.212c0-1.269,0.448-2.331,1.344-3.188c0.452-0.429,0.958-0.748,1.518-0.958
		c0.559-0.21,1.167-0.315,1.825-0.315c0.469,0,0.952,0.063,1.452,0.19c0.27,0.063,0.527,0.143,0.772,0.238
		c0.246,0.095,0.512,0.218,0.797,0.368v1.393c-0.404-0.23-0.733-0.403-0.987-0.518c-0.254-0.115-0.495-0.209-0.726-0.28
		c-0.468-0.143-0.939-0.214-1.415-0.214c-0.944,0-1.729,0.313-2.355,0.939c-0.635,0.619-0.952,1.4-0.952,2.344
		c0,0.976,0.31,1.765,0.929,2.367c0.626,0.611,1.431,0.916,2.414,0.916c0.54,0,1.043-0.083,1.511-0.25
		c0.119-0.039,0.236-0.083,0.352-0.131c0.114-0.047,0.237-0.103,0.368-0.166s0.274-0.137,0.429-0.22
		C179.366,61.825,179.542,61.728,179.741,61.617z"/>
	<path fill="#818282" d="M188.27,55.039v8.708h-1.226v-3.843h-4.806v3.843h-1.226v-8.708h1.226v3.747h4.806v-3.747H188.27z"/>
	<path fill="#818282" d="M194.884,62.627v1.119h-5.127v-8.708h5.044v1.118h-3.819v2.652h3.712v1.118h-3.712v2.7H194.884z"/>
	<path fill="#818282" d="M201.416,60.951l1.819,2.796h-1.451l-1.511-2.355c-0.15-0.23-0.291-0.44-0.422-0.631
		s-0.264-0.36-0.398-0.512c-0.223-0.262-0.567-0.393-1.035-0.393h-0.94v3.891h-1.225v-8.708h2.344c0.451,0,0.86,0.048,1.225,0.143
		c0.365,0.095,0.687,0.246,0.964,0.452c0.277,0.214,0.485,0.476,0.624,0.785s0.209,0.654,0.209,1.035
		c0,0.603-0.183,1.09-0.548,1.463c-0.229,0.23-0.472,0.42-0.726,0.571c0.063,0.063,0.125,0.131,0.185,0.202s0.121,0.15,0.185,0.237
		c0.127,0.183,0.248,0.357,0.362,0.523C201.191,60.618,201.304,60.784,201.416,60.951z M199.904,58.393
		c0.144-0.111,0.252-0.242,0.327-0.393c0.076-0.15,0.113-0.337,0.113-0.56c0-0.396-0.143-0.705-0.428-0.928
		c-0.325-0.237-0.77-0.356-1.333-0.356h-1.106v2.581h1.047c0.317,0,0.589-0.029,0.815-0.089
		C199.565,58.589,199.753,58.504,199.904,58.393z"/>
	<path fill="#818282" d="M211.039,61.617v1.332c-0.27,0.159-0.527,0.29-0.773,0.393c-0.246,0.104-0.499,0.194-0.761,0.274
		c-0.278,0.087-0.544,0.148-0.798,0.184c-0.254,0.036-0.503,0.054-0.749,0.054c-1.364,0-2.49-0.416-3.379-1.249
		c-0.896-0.833-1.344-1.903-1.344-3.212c0-1.269,0.448-2.331,1.344-3.188c0.452-0.429,0.958-0.748,1.518-0.958
		c0.559-0.21,1.167-0.315,1.825-0.315c0.469,0,0.952,0.063,1.452,0.19c0.27,0.063,0.527,0.143,0.772,0.238
		c0.246,0.095,0.512,0.218,0.797,0.368v1.393c-0.404-0.23-0.733-0.403-0.987-0.518c-0.254-0.115-0.495-0.209-0.726-0.28
		c-0.468-0.143-0.939-0.214-1.415-0.214c-0.944,0-1.729,0.313-2.355,0.939c-0.635,0.619-0.952,1.4-0.952,2.344
		c0,0.976,0.31,1.765,0.929,2.367c0.626,0.611,1.431,0.916,2.414,0.916c0.54,0,1.043-0.083,1.511-0.25
		c0.119-0.039,0.236-0.083,0.352-0.131c0.114-0.047,0.237-0.103,0.368-0.166s0.274-0.137,0.429-0.22
		C210.664,61.825,210.84,61.728,211.039,61.617z"/>
	<path fill="#818282" d="M219.568,55.039v8.708h-1.226v-3.843h-4.806v3.843h-1.226v-8.708h1.226v3.747h4.806v-3.747H219.568z"/>
	<path fill="#818282" d="M226.182,62.627v1.119h-5.127v-8.708h5.044v1.118h-3.819v2.652h3.712v1.118h-3.712v2.7H226.182z"/>
	<path fill="#818282" d="M233.141,55.039v8.708h-1.214v-8.708H233.141z"/>
	<path fill="#818282" d="M242.847,55.039v8.708h-1.226v-6.674l-2.783,3.449l-2.796-3.449v6.674h-1.225v-8.708h1.07l2.95,3.604
		l2.938-3.604H242.847z"/>
	<path fill="#818282" d="M252.875,55.039v8.708h-1.226v-6.674l-2.783,3.449l-2.796-3.449v6.674h-1.225v-8.708h1.07l2.95,3.604
		l2.938-3.604H252.875z"/>
	<path fill="#818282" d="M262.595,56.205c0.888,0.864,1.332,1.927,1.332,3.188c0,1.253-0.444,2.313-1.332,3.177
		c-0.881,0.856-1.967,1.284-3.26,1.284c-1.309,0-2.398-0.424-3.271-1.272c-0.88-0.856-1.32-1.919-1.32-3.188
		c0-1.269,0.437-2.327,1.309-3.176c0.881-0.856,1.975-1.285,3.283-1.285C260.621,54.931,261.707,55.356,262.595,56.205z
		 M261.679,61.712c0.65-0.65,0.976-1.424,0.976-2.32c0-0.896-0.325-1.669-0.976-2.319c-0.643-0.643-1.424-0.964-2.344-0.964
		c-0.928,0-1.713,0.321-2.355,0.964s-0.963,1.415-0.963,2.319c0,0.912,0.316,1.686,0.951,2.32c0.643,0.642,1.432,0.963,2.367,0.963
		C260.255,62.675,261.037,62.354,261.679,61.712z"/>
	<path fill="#818282" d="M270.375,59.666c0.42,0.397,0.63,0.924,0.63,1.582c0,0.785-0.277,1.404-0.832,1.856
		c-0.548,0.428-1.277,0.643-2.189,0.643h-2.664v-8.708h2.058c0.429,0,0.82,0.05,1.178,0.148c0.356,0.1,0.67,0.252,0.939,0.458
		c0.539,0.444,0.81,1.047,0.81,1.809c0,0.689-0.258,1.249-0.773,1.677C269.856,59.25,270.137,59.428,270.375,59.666z M268.59,58.464
		c0.144-0.111,0.252-0.242,0.327-0.393c0.076-0.15,0.113-0.337,0.113-0.559c0-0.246-0.037-0.45-0.113-0.613
		c-0.075-0.162-0.18-0.295-0.314-0.398c-0.151-0.111-0.344-0.196-0.577-0.256c-0.234-0.06-0.521-0.089-0.862-0.089h-0.619v2.641
		h0.654C267.833,58.797,268.297,58.686,268.59,58.464z M269.292,62.271c0.302-0.229,0.452-0.551,0.452-0.964
		c0-0.253-0.04-0.462-0.119-0.624c-0.079-0.163-0.198-0.296-0.356-0.398c-0.175-0.119-0.391-0.21-0.648-0.273
		s-0.577-0.096-0.958-0.096h-1.118v2.712h1.32c0.325,0,0.603-0.031,0.833-0.095S269.126,62.382,269.292,62.271z"/>
	<path fill="#818282" d="M273.575,55.039v8.708h-1.214v-8.708H273.575z"/>
	<path fill="#818282" d="M280.486,62.627v1.119h-5.234v-8.708h1.226v7.589H280.486z"/>
	<path fill="#818282" d="M282.9,55.039v8.708h-1.214v-8.708H282.9z"/>
	<path fill="#818282" d="M289.216,62.627v1.119h-5.127v-8.708h5.044v1.118h-3.819v2.652h3.712v1.118h-3.712v2.7H289.216z"/>
	<path fill="#818282" d="M295.748,60.951l1.819,2.796h-1.451l-1.511-2.355c-0.15-0.23-0.291-0.44-0.422-0.631
		s-0.264-0.36-0.398-0.512c-0.223-0.262-0.567-0.393-1.035-0.393h-0.94v3.891h-1.225v-8.708h2.344c0.451,0,0.86,0.048,1.225,0.143
		c0.365,0.095,0.687,0.246,0.964,0.452c0.277,0.214,0.485,0.476,0.624,0.785s0.209,0.654,0.209,1.035
		c0,0.603-0.183,1.09-0.548,1.463c-0.229,0.23-0.472,0.42-0.726,0.571c0.063,0.063,0.125,0.131,0.185,0.202s0.121,0.15,0.185,0.237
		c0.127,0.183,0.248,0.357,0.362,0.523C295.523,60.618,295.636,60.784,295.748,60.951z M294.236,58.393
		c0.144-0.111,0.252-0.242,0.327-0.393c0.076-0.15,0.113-0.337,0.113-0.56c0-0.396-0.143-0.705-0.428-0.928
		c-0.325-0.237-0.77-0.356-1.333-0.356h-1.106v2.581h1.047c0.317,0,0.589-0.029,0.815-0.089
		C293.897,58.589,294.085,58.504,294.236,58.393z"/>
</g>
<g>
	<g>
		<path fill="#00A2C6" d="M57.877,60.933l-7.468-7.576c0.914-1.801,1.41-3.801,1.41-5.881c0-3.469-1.354-6.726-3.802-9.179
			c-2.452-2.455-5.711-3.804-9.181-3.804c-3.468,0-6.732,1.349-9.182,3.804c-2.451,2.453-3.804,5.713-3.804,9.179
			c0,3.474,1.353,6.729,3.804,9.182c2.45,2.455,5.714,3.808,9.182,3.808c2.077,0,4.077-0.502,5.879-1.419l7.098,6.392
			c1.855,1.836,2.661,2.235,3.695,2.235c1.033,0,1.581-0.238,2.369-1.021C59.455,65.071,59.455,62.512,57.877,60.933z
			 M33.947,52.366c-1.308-1.307-2.024-3.04-2.024-4.89c0-1.843,0.716-3.58,2.024-4.884c1.308-1.309,3.04-2.025,4.889-2.025
			c1.846,0,3.581,0.717,4.888,2.025c1.305,1.3,2.026,3.041,2.026,4.884c0,1.846-0.722,3.583-2.026,4.89
			c-1.307,1.304-3.042,2.023-4.888,2.023C36.987,54.389,35.255,53.672,33.947,52.366z"/>
	</g>
</g>
<g>
	<g>
		<path fill="#00A2C6" d="M293.899,8.677l-9.021,3.368l-1.199-2.683l8.337-4.795L293.899,8.677z M292.016,4.566l1.883,4.11
			L292.016,4.566z"/>
	</g>
</g>
<polygon fill="#333333" points="39.003,12.202 19.43,27.02 19.43,17.105 13.086,17.105 13.086,31.823 3.196,39.31 13.086,39.31 
	13.086,67.393 19.43,67.393 19.43,34.978 39.003,20.159 58.374,34.823 58.374,48.042 64.719,48.042 64.719,39.31 74.814,39.31 "/>
</svg>
