<?xml version="1.0" encoding="utf-8"?>
<!-- Generator: Adobe Illustrator 16.0.3, SVG Export Plug-In . SVG Version: 6.00 Build 0)  -->
<!DOCTYPE svg PUBLIC "-//W3C//DTD SVG 1.1//EN" "http://www.w3.org/Graphics/SVG/1.1/DTD/svg11.dtd">
<svg version="1.1" id="Calque_1" xmlns="http://www.w3.org/2000/svg" xmlns:xlink="http://www.w3.org/1999/xlink" x="0px" y="0px"
	 width="300px" height="70px" viewBox="0 0 300 70" enable-background="new 0 0 300 70" xml:space="preserve">
<g>
	<path fill="#333333" d="M110.545,13.645L96.061,44.81h-3.734L77.801,13.645h8.217l8.175,17.719l8.217-17.719H110.545z"/>
	<path fill="#333333" d="M114.071,13.685h8.173V44.81h-8.173V13.685z"/>
	<path fill="#333333" d="M127.846,13.645h24.527v8.133h-8.259V44.81h-8.175V21.777h-8.092V13.645z"/>
	<path fill="#333333" d="M158.016,13.685h19.338v6.765h-11.165v5.062h9.879v6.89h-9.879v5.727h11.165v6.682h-19.338V13.685z"/>
	<path fill="#00A1C6" d="M183.203,13.685h8.175v22.908h11.205v8.217h-19.38V13.685z"/>
	<path fill="#00A1C6" d="M222.086,13.685c8.59,0,15.562,7.014,15.562,15.604c0,8.589-6.972,15.521-15.562,15.521
		s-15.521-6.932-15.521-15.521C206.565,20.699,213.496,13.685,222.086,13.685z M222.086,21.819c-4.066,0-7.386,3.32-7.386,7.427
		c0,4.068,3.319,7.429,7.386,7.429c4.108,0,7.429-3.36,7.429-7.429C229.515,25.14,226.194,21.819,222.086,21.819z"/>
	<path fill="#00A1C6" d="M273.335,28.085v1.161c0,8.592-6.974,15.563-15.562,15.563c-8.591,0-15.521-6.972-15.521-15.563
		c0-8.589,6.93-15.561,15.521-15.561c4.273,0,8.133,1.743,10.954,4.523l-5.767,5.726c-1.328-1.243-3.07-2.073-5.188-2.073
		c-3.902,0-7.348,3.111-7.348,7.385c0,4.275,3.529,7.389,7.348,7.389c2.447,0,4.729-1.203,6.017-3.07h-6.017v-5.479H273.335z"/>
	<path fill="#00A1C6" d="M277.814,13.685h19.34v6.765h-11.166v5.062h9.879v6.89h-9.879v5.727h11.166v6.682h-19.34V13.685z"/>
</g>
<g>
	<g>
		<path fill="#818282" d="M83.299,63.518v1.11h-5.196v-8.645h1.216v7.534H83.299z"/>
		<path fill="#818282" d="M89.098,63.518v1.11h-5.09v-8.645h5.008v1.11h-3.792v2.634h3.686v1.109h-3.686v2.681H89.098z"/>
		<path fill="#818282" d="M102.408,55.983v8.645h-1.216v-6.624l-2.764,3.424l-2.776-3.424v6.624h-1.216v-8.645h1.063l2.929,3.579
			l2.917-3.579H102.408z"/>
		<path fill="#818282" d="M111.703,57.14c0.881,0.859,1.323,1.914,1.323,3.166c0,1.245-0.442,2.296-1.323,3.153
			c-0.874,0.851-1.953,1.274-3.236,1.274c-1.299,0-2.382-0.421-3.248-1.263c-0.875-0.851-1.312-1.904-1.312-3.165
			c0-1.26,0.433-2.312,1.299-3.153c0.874-0.851,1.96-1.274,3.26-1.274C109.743,55.878,110.821,56.299,111.703,57.14z
			 M110.794,62.607c0.646-0.645,0.968-1.412,0.968-2.302s-0.323-1.657-0.968-2.302c-0.639-0.64-1.415-0.957-2.328-0.957
			c-0.921,0-1.701,0.317-2.338,0.957c-0.638,0.636-0.957,1.404-0.957,2.302c0,0.905,0.315,1.673,0.944,2.302
			c0.638,0.64,1.421,0.957,2.351,0.957C109.379,63.564,110.156,63.247,110.794,62.607z"/>
		<path fill="#818282" d="M119.758,55.983v1.11h-3.024v7.534h-1.217v-7.534h-3.023v-1.11H119.758z"/>
		<path fill="#818282" d="M125.569,63.518v1.11h-5.09v-8.645h5.008v1.11h-3.791v2.634h3.685v1.109h-3.685v2.681H125.569z"/>
		<path fill="#818282" d="M133.908,55.983v4.854c0,0.56-0.083,1.071-0.248,1.535c-0.165,0.465-0.417,0.883-0.756,1.252
			c-0.684,0.74-1.571,1.109-2.657,1.109c-1.079,0-1.961-0.358-2.647-1.073c-0.684-0.716-1.027-1.639-1.027-2.764v-4.913h1.217v4.866
			c0,0.439,0.056,0.824,0.171,1.15c0.112,0.327,0.281,0.607,0.502,0.845c0.439,0.479,1.038,0.72,1.795,0.72
			c0.748,0,1.337-0.246,1.771-0.743c0.212-0.245,0.376-0.533,0.49-0.868c0.115-0.334,0.171-0.724,0.171-1.163v-4.807H133.908z"/>
		<path fill="#818282" d="M140.131,61.854l1.807,2.774h-1.44l-1.501-2.338c-0.149-0.228-0.288-0.437-0.417-0.627
			c-0.131-0.188-0.262-0.358-0.396-0.508c-0.221-0.259-0.564-0.39-1.029-0.39h-0.932v3.862h-1.217v-8.645h2.327
			c0.449,0,0.854,0.047,1.216,0.141c0.363,0.095,0.683,0.244,0.957,0.448c0.276,0.214,0.483,0.475,0.62,0.779
			c0.137,0.309,0.206,0.652,0.206,1.029c0,0.599-0.181,1.082-0.542,1.452c-0.228,0.228-0.468,0.418-0.72,0.567
			c0.063,0.063,0.125,0.13,0.184,0.2c0.058,0.071,0.118,0.149,0.182,0.236c0.126,0.181,0.245,0.355,0.36,0.521
			C139.908,61.522,140.021,61.688,140.131,61.854z M138.632,59.313c0.14-0.108,0.25-0.24,0.324-0.39s0.112-0.333,0.112-0.555
			c0-0.393-0.142-0.701-0.426-0.92c-0.322-0.236-0.764-0.354-1.323-0.354h-1.097v2.562h1.038c0.315,0,0.586-0.027,0.811-0.087
			S138.482,59.425,138.632,59.313z"/>
		<path fill="#818282" d="M152.862,57.14c0.426,0.395,0.742,0.854,0.951,1.383c0.208,0.528,0.313,1.127,0.313,1.794
			c0,1.261-0.4,2.298-1.204,3.108c-0.409,0.408-0.894,0.712-1.453,0.908c-0.558,0.196-1.188,0.295-1.889,0.295h-3.248v-8.645h3.166
			c0.7,0,1.33,0.094,1.89,0.284C151.945,56.454,152.438,56.747,152.862,57.14z M151.931,62.646c0.621-0.583,0.932-1.359,0.932-2.329
			c0-0.966-0.306-1.747-0.92-2.338c-0.614-0.589-1.449-0.885-2.504-0.885h-1.891v6.424h1.867
			C150.468,63.518,151.307,63.229,151.931,62.646z"/>
		<path fill="#818282" d="M160.375,63.518v1.11h-5.091v-8.645h5.007v1.11H156.5v2.634h3.685v1.109H156.5v2.681H160.375z"/>
		<path fill="#818282" d="M170.39,61.854l1.806,2.774h-1.439l-1.5-2.338c-0.149-0.228-0.29-0.437-0.421-0.627
			c-0.129-0.188-0.262-0.358-0.396-0.508c-0.22-0.259-0.562-0.39-1.025-0.39h-0.936v3.862h-1.216v-8.645h2.327
			c0.449,0,0.854,0.047,1.218,0.141c0.361,0.095,0.679,0.244,0.957,0.448c0.273,0.214,0.479,0.475,0.618,0.779
			c0.139,0.309,0.207,0.652,0.207,1.029c0,0.599-0.181,1.082-0.544,1.452c-0.229,0.228-0.469,0.418-0.72,0.567
			c0.063,0.063,0.123,0.13,0.183,0.2c0.059,0.071,0.121,0.149,0.184,0.236c0.125,0.181,0.246,0.355,0.36,0.521
			C170.166,61.522,170.278,61.688,170.39,61.854z M168.889,59.313c0.143-0.108,0.25-0.24,0.325-0.39s0.112-0.333,0.112-0.555
			c0-0.393-0.142-0.701-0.426-0.92c-0.322-0.236-0.764-0.354-1.321-0.354h-1.101v2.562h1.041c0.315,0,0.583-0.027,0.808-0.087
			S168.738,59.425,168.889,59.313z"/>
		<path fill="#818282" d="M178.102,63.518v1.11h-5.091v-8.645h5.008v1.11h-3.79v2.634h3.685v1.109h-3.685v2.681H178.102z"/>
		<path fill="#818282" d="M186.487,62.515v1.321c-0.269,0.159-0.524,0.288-0.769,0.392c-0.243,0.101-0.496,0.191-0.755,0.271
			c-0.277,0.086-0.541,0.148-0.792,0.183c-0.252,0.037-0.502,0.053-0.745,0.053c-1.353,0-2.472-0.411-3.354-1.239
			c-0.889-0.827-1.334-1.891-1.334-3.188c0-1.26,0.445-2.314,1.334-3.166c0.448-0.424,0.95-0.741,1.506-0.95
			c0.555-0.209,1.159-0.312,1.813-0.312c0.465,0,0.945,0.062,1.44,0.187c0.269,0.064,0.523,0.144,0.767,0.237
			c0.245,0.095,0.509,0.217,0.792,0.366v1.382c-0.402-0.228-0.728-0.398-0.979-0.514c-0.253-0.114-0.493-0.206-0.722-0.277
			c-0.465-0.143-0.934-0.212-1.404-0.212c-0.938,0-1.718,0.31-2.34,0.932c-0.631,0.614-0.946,1.391-0.946,2.327
			c0,0.968,0.309,1.752,0.923,2.351c0.622,0.606,1.422,0.908,2.397,0.908c0.536,0,1.035-0.081,1.499-0.246
			c0.119-0.04,0.234-0.084,0.35-0.131c0.113-0.047,0.236-0.103,0.366-0.165c0.129-0.063,0.271-0.138,0.426-0.219
			C186.114,62.72,186.289,62.625,186.487,62.515z"/>
		<path fill="#818282" d="M194.603,55.983v8.645h-1.217v-3.814h-4.771v3.814h-1.217v-8.645h1.217v3.719h4.771v-3.719H194.603z"/>
		<path fill="#818282" d="M200.813,63.518v1.11h-5.091v-8.645h5.01v1.11h-3.792v2.634h3.686v1.109h-3.686v2.681H200.813z"/>
		<path fill="#818282" d="M206.942,61.854l1.807,2.774h-1.44l-1.499-2.338c-0.15-0.228-0.29-0.437-0.421-0.627
			c-0.13-0.188-0.262-0.358-0.396-0.508c-0.22-0.259-0.561-0.39-1.025-0.39h-0.935v3.862h-1.216v-8.645h2.327
			c0.448,0,0.854,0.047,1.217,0.141c0.361,0.095,0.68,0.244,0.957,0.448c0.274,0.214,0.48,0.475,0.619,0.779
			c0.139,0.309,0.207,0.652,0.207,1.029c0,0.599-0.181,1.082-0.544,1.452c-0.229,0.228-0.47,0.418-0.72,0.567
			c0.063,0.063,0.123,0.13,0.182,0.2c0.06,0.071,0.122,0.149,0.185,0.236c0.124,0.181,0.246,0.355,0.359,0.521
			C206.72,61.522,206.832,61.688,206.942,61.854z M205.441,59.313c0.144-0.108,0.251-0.24,0.326-0.39
			c0.074-0.149,0.112-0.333,0.112-0.555c0-0.393-0.143-0.701-0.426-0.92c-0.323-0.236-0.764-0.354-1.322-0.354h-1.1v2.562h1.041
			c0.314,0,0.583-0.027,0.807-0.087C205.104,59.509,205.292,59.425,205.441,59.313z"/>
		<path fill="#818282" d="M216.143,62.515v1.321c-0.268,0.159-0.523,0.288-0.767,0.392c-0.244,0.101-0.495,0.191-0.756,0.271
			c-0.275,0.086-0.541,0.148-0.792,0.183c-0.251,0.037-0.5,0.053-0.743,0.053c-1.354,0-2.472-0.411-3.354-1.239
			c-0.89-0.827-1.334-1.891-1.334-3.188c0-1.26,0.444-2.314,1.334-3.166c0.449-0.424,0.951-0.741,1.506-0.95s1.16-0.312,1.813-0.312
			c0.465,0,0.945,0.062,1.442,0.187c0.267,0.064,0.523,0.144,0.767,0.237c0.243,0.095,0.508,0.217,0.792,0.366v1.382
			c-0.402-0.228-0.729-0.398-0.98-0.514c-0.253-0.114-0.493-0.206-0.722-0.277c-0.465-0.143-0.933-0.212-1.404-0.212
			c-0.937,0-1.716,0.31-2.34,0.932c-0.63,0.614-0.944,1.391-0.944,2.327c0,0.968,0.307,1.752,0.923,2.351
			c0.62,0.606,1.42,0.908,2.397,0.908c0.534,0,1.034-0.081,1.499-0.246c0.118-0.04,0.233-0.084,0.349-0.131
			c0.112-0.047,0.235-0.103,0.365-0.165c0.131-0.063,0.271-0.138,0.426-0.219C215.772,62.72,215.946,62.625,216.143,62.515z"/>
		<path fill="#818282" d="M224.258,55.983v8.645h-1.216v-3.814h-4.772v3.814h-1.216v-8.645h1.216v3.719h4.772v-3.719H224.258z"/>
		<path fill="#818282" d="M230.47,63.518v1.11h-5.09v-8.645h5.006v1.11h-3.79v2.634h3.685v1.109h-3.685v2.681H230.47z"/>
		<path fill="#818282" d="M236.67,55.983v8.645h-1.206v-8.645H236.67z"/>
		<path fill="#818282" d="M245.953,55.983v8.645h-1.219v-6.624l-2.763,3.424l-2.776-3.424v6.624h-1.216v-8.645h1.063l2.929,3.579
			l2.918-3.579H245.953z"/>
		<path fill="#818282" d="M255.554,55.983v8.645h-1.216v-6.624l-2.765,3.424l-2.774-3.424v6.624h-1.219v-8.645h1.063l2.931,3.579
			l2.918-3.579H255.554z"/>
		<path fill="#818282" d="M264.85,57.14c0.883,0.859,1.322,1.914,1.322,3.166c0,1.245-0.439,2.296-1.322,3.153
			c-0.876,0.851-1.954,1.274-3.235,1.274c-1.3,0-2.382-0.421-3.248-1.263c-0.876-0.851-1.313-1.904-1.313-3.165
			c0-1.26,0.433-2.312,1.3-3.153c0.873-0.851,1.961-1.274,3.261-1.274C262.889,55.878,263.968,56.299,264.85,57.14z M263.939,62.607
			c0.646-0.645,0.97-1.412,0.97-2.302s-0.324-1.657-0.97-2.302c-0.639-0.64-1.412-0.957-2.325-0.957
			c-0.923,0-1.702,0.317-2.338,0.957c-0.64,0.636-0.957,1.404-0.957,2.302c0,0.905,0.314,1.673,0.944,2.302
			c0.636,0.64,1.422,0.957,2.351,0.957C262.527,63.564,263.301,63.247,263.939,62.607z"/>
		<path fill="#818282" d="M272.219,60.578c0.418,0.393,0.627,0.917,0.627,1.57c0,0.78-0.277,1.395-0.826,1.842
			c-0.546,0.426-1.269,0.638-2.176,0.638H267.2v-8.645h2.042c0.427,0,0.816,0.049,1.169,0.146c0.355,0.1,0.667,0.251,0.935,0.455
			c0.533,0.441,0.802,1.04,0.802,1.796c0,0.686-0.256,1.24-0.767,1.664C271.701,60.164,271.982,60.342,272.219,60.578z
			 M270.448,59.385c0.141-0.109,0.249-0.24,0.324-0.39c0.075-0.15,0.112-0.334,0.112-0.556c0-0.242-0.037-0.447-0.112-0.607
			c-0.075-0.162-0.181-0.293-0.314-0.396c-0.149-0.111-0.34-0.196-0.57-0.255c-0.234-0.059-0.518-0.088-0.857-0.088h-0.614v2.621
			h0.648C269.694,59.715,270.155,59.605,270.448,59.385z M271.144,63.164c0.3-0.229,0.449-0.547,0.449-0.957
			c0-0.251-0.041-0.458-0.119-0.62c-0.077-0.161-0.196-0.293-0.352-0.395c-0.175-0.118-0.39-0.209-0.646-0.272
			c-0.256-0.064-0.574-0.096-0.951-0.096h-1.109v2.693h1.31c0.324,0,0.599-0.031,0.829-0.093
			C270.782,63.36,270.979,63.274,271.144,63.164z"/>
		<path fill="#818282" d="M275.043,55.983v8.645h-1.206v-8.645H275.043z"/>
		<path fill="#818282" d="M281.549,63.518v1.11h-5.196v-8.645h1.216v7.534H281.549z"/>
		<path fill="#818282" d="M283.591,55.983v8.645h-1.203v-8.645H283.591z"/>
		<path fill="#818282" d="M289.508,63.518v1.11h-5.091v-8.645h5.01v1.11h-3.791v2.634h3.685v1.109h-3.685v2.681H289.508z"/>
		<path fill="#818282" d="M295.639,61.854l1.806,2.774h-1.44l-1.499-2.338c-0.15-0.228-0.29-0.437-0.418-0.627
			c-0.131-0.188-0.262-0.358-0.396-0.508c-0.221-0.259-0.563-0.39-1.028-0.39h-0.932v3.862h-1.219v-8.645h2.328
			c0.449,0,0.854,0.047,1.216,0.141c0.361,0.095,0.683,0.244,0.957,0.448c0.274,0.214,0.483,0.475,0.62,0.779
			c0.137,0.309,0.206,0.652,0.206,1.029c0,0.599-0.181,1.082-0.543,1.452c-0.228,0.228-0.468,0.418-0.72,0.567
			c0.063,0.063,0.125,0.13,0.184,0.2c0.057,0.071,0.119,0.149,0.182,0.236c0.127,0.181,0.246,0.355,0.361,0.521
			C295.415,61.522,295.527,61.688,295.639,61.854z M294.14,59.313c0.141-0.108,0.249-0.24,0.324-0.39s0.112-0.333,0.112-0.555
			c0-0.393-0.144-0.701-0.427-0.92c-0.321-0.236-0.764-0.354-1.322-0.354h-1.097v2.562h1.038c0.314,0,0.586-0.027,0.81-0.087
			C293.803,59.509,293.99,59.425,294.14,59.313z"/>
	</g>
</g>
<g>
	<g>
		<path fill="#00A1C6" d="M57.472,58.721l-7.514-7.625c0.921-1.812,1.42-3.825,1.42-5.917c0-3.491-1.362-6.768-3.828-9.236
			c-2.466-2.472-5.747-3.828-9.237-3.828c-3.491,0-6.774,1.356-9.239,3.828c-2.466,2.469-3.83,5.748-3.83,9.236
			c0,3.495,1.364,6.771,3.83,9.24c2.465,2.469,5.748,3.828,9.239,3.828c2.089,0,4.103-0.502,5.915-1.425l7.142,6.431
			c1.869,1.849,2.679,2.248,3.719,2.248s1.591-0.24,2.383-1.026C59.062,62.882,59.062,60.308,57.472,58.721z M33.394,50.098
			c-1.315-1.315-2.039-3.058-2.039-4.919c0-1.854,0.723-3.604,2.039-4.916c1.315-1.315,3.058-2.038,4.919-2.038
			c1.858,0,3.604,0.723,4.919,2.038c1.312,1.31,2.037,3.062,2.037,4.916c0,1.855-0.725,3.604-2.037,4.919
			c-1.316,1.313-3.062,2.036-4.919,2.036C36.452,52.134,34.709,51.414,33.394,50.098z"/>
	</g>
</g>
<g>
	<path fill="#00A1C6" d="M294.093,6.137l-9.077,3.389l-1.207-2.7L292.197,2L294.093,6.137z M292.197,2l1.896,4.137L292.197,2z"/>
</g>
<path fill="#333333" d="M16.308,68.412c-1.764,0-3.192-1.428-3.192-3.192V36.962H4.688c-1.429,0-2.686-0.951-3.072-2.329
	c-0.388-1.377,0.188-2.843,1.409-3.588l32.913-20.083c1.019-0.623,2.303-0.623,3.326,0l32.913,20.083
	c1.22,0.745,1.797,2.211,1.409,3.588c-0.386,1.378-1.643,2.329-3.072,2.329h-7.038v8.787c0,1.762-1.427,3.192-3.192,3.192
	c-1.761,0-3.192-1.431-3.192-3.192V32.174c3.949,0,5.471,0,5.471,0L37.599,17.426L14.452,32.174c0,0,1.856,0,5.048,0V65.22
	C19.5,66.984,18.069,68.412,16.308,68.412z"/>
<path fill="#333333" d="M13.116,25.986v-12.3c0-1.763,1.428-3.192,3.192-3.192c1.761,0,3.192,1.429,3.192,3.192v12.3H13.116z"/>
</svg>
